<?xml version="1.0" encoding="UTF-8"?>
<svg xmlns="http://www.w3.org/2000/svg" xmlns:xlink="http://www.w3.org/1999/xlink"
     width="171" height="114" viewBox="0 -114 171 114">
<defs>
</defs>
<path d="M104.50000000000001,-95.0 L104.0,-94.5 L103.5,-94.5 L103.0,-94.0 L102.50000000000001,-93.5 L102.0,-93.0 L102.0,-92.5 L102.0,-92.0 L102.0,-91.5 L102.0,-91.0 L102.0,-90.5 L102.0,-90.0 L102.0,-89.5 L102.0,-89.0 L102.0,-88.5 L102.0,-88.0 L102.0,-87.5 L102.0,-87.0 L102.0,-86.5 L102.0,-86.0 L102.0,-85.5 L102.0,-85.0 L102.0,-84.5 L101.5,-84.0 L101.0,-83.5 L100.50000000000001,-83.0 L100.0,-83.0 L99.5,-82.5 L99.0,-82.5 L98.50000000000001,-82.0 L98.0,-82.0 L97.5,-81.5 L97.0,-81.5 L96.50000000000001,-81.0 L96.50000000000001,-80.5 L96.0,-80.0 L96.0,-79.5 L96.0,-79.0 L95.5,-78.5 L95.5,-78.0 L95.5,-77.5 L95.0,-77.0 L95.0,-76.5 L95.0,-76.0 L94.50000000000001,-75.5 L94.50000000000001,-75.0 L94.50000000000001,-74.5 L94.0,-74.0 L94.0,-73.5 L93.5,-73.0 L93.5,-72.5 L93.5,-72.0 L93.0,-71.5 L92.50000000000001,-71.0 L92.0,-70.5 L91.5,-70.5 L91.0,-70.5 L90.50000000000001,-70.0 L90.0,-70.0 L89.5,-70.0 L89.0,-70.0 L88.50000000000001,-69.5 L88.0,-69.5 L87.5,-69.0 L87.0,-68.5 L86.50000000000001,-68.0 L86.0,-68.0 L85.5,-67.5 L85.0,-67.5 L84.5,-68.0 L84.0,-68.5 L83.5,-69.0 L83.0,-69.0 L82.5,-69.5 L82.0,-69.5 L81.5,-70.0 L81.0,-70.0 L80.5,-70.5 L80.0,-70.5 L79.5,-71.0 L79.0,-71.0 L78.5,-71.5 L78.0,-71.5 L77.5,-72.0 L77.0,-72.5 L76.5,-72.5 L76.0,-73.0 L76.0,-73.5 L76.0,-74.0 L76.0,-74.5 L75.5,-75.0 L75.5,-75.5 L75.5,-76.0 L75.5,-76.5 L75.5,-77.0 L75.5,-77.5 L75.5,-78.0 L75.5,-78.5 L75.5,-79.0 L75.5,-79.5 L75.5,-80.0 L75.5,-80.5 L75.0,-81.0 L75.0,-81.5 L75.0,-82.0 L74.5,-82.5 L74.0,-83.0 L73.5,-83.5 L73.0,-84.0 L72.5,-84.0 L72.0,-84.5 L71.5,-84.5 L71.0,-85.0 L70.5,-85.5 L70.0,-85.5 L69.5,-86.0 L69.0,-85.5 L68.5,-85.0 L68.0,-84.5 L67.5,-84.0 L67.0,-83.5 L67.0,-83.0 L66.5,-82.5 L66.5,-82.0 L66.5,-81.5 L66.0,-81.0 L66.0,-80.5 L66.0,-80.0 L66.0,-79.5 L66.0,-79.0 L66.0,-78.5 L66.0,-78.0 L66.0,-77.5 L66.0,-77.0 L66.0,-76.5 L65.5,-76.0 L65.5,-75.5 L65.0,-75.0 L64.5,-74.5 L64.5,-74.0 L64.0,-73.5 L63.5,-73.0 L63.0,-72.5 L62.5,-72.0 L62.0,-71.5 L61.5,-71.5 L61.0,-71.0 L60.5,-71.0 L60.0,-71.0 L59.5,-70.5 L59.0,-70.5 L58.5,-70.0 L58.0,-69.5 L57.5,-69.5 L57.0,-69.5 L56.5,-70.0 L56.0,-70.0 L55.5,-70.5 L55.0,-71.0 L55.0,-71.5 L54.5,-72.0 L54.0,-72.5 L54.0,-73.0 L53.5,-73.5 L53.5,-74.0 L53.0,-74.5 L52.5,-75.0 L52.5,-75.5 L52.5,-76.0 L52.0,-76.5 L52.0,-77.0 L51.5,-77.5 L51.0,-78.0 L51.0,-78.5 L50.5,-79.0 L50.0,-79.5 L49.5,-80.0 L49.0,-80.0 L48.5,-80.0 L48.0,-80.5 L47.5,-81.0 L47.0,-81.5 L47.0,-82.0 L46.5,-82.5 L46.5,-83.0 L46.0,-83.5 L46.0,-84.0 L45.5,-84.5 L45.5,-85.0 L45.5,-85.5 L45.5,-86.0 L45.5,-86.5 L45.5,-87.0 L45.5,-87.5 L45.5,-88.0 L45.5,-88.5 L45.5,-89.0 L45.5,-89.5 L45.0,-90.0 L45.0,-90.5 L44.5,-91.0 L44.5,-91.5 L44.5,-92.0 L44.0,-92.5 L44.0,-93.0 L43.5,-93.5 L43.0,-93.5 L42.5,-94.0 L42.0,-94.5 L41.5,-94.5 L41.0,-94.5 L40.5,-94.0 L40.0,-94.0 L39.5,-94.0 L39.0,-93.5 L38.5,-93.5 L38.0,-93.0 L37.5,-93.0 L37.0,-92.5 L36.5,-92.0 L36.5,-91.5 L36.5,-91.0 L36.0,-90.5 L36.0,-90.0 L36.0,-89.5 L35.5,-89.0 L35.5,-88.5 L35.5,-88.0 L35.5,-87.5 L35.5,-87.0 L35.5,-86.5 L35.5,-86.0 L35.5,-85.5 L35.5,-85.0 L35.5,-84.5 L35.5,-84.0 L35.5,-83.5 L35.0,-83.0 L35.0,-82.5 L34.5,-82.0 L34.5,-81.5 L34.0,-81.0 L33.5,-80.5 L33.0,-80.0 L32.5,-80.0 L32.0,-79.5 L31.5,-79.0 L31.0,-78.5 L30.5,-78.5 L30.0,-78.0 L29.5,-77.5 L29.0,-77.5 L28.5,-77.0 L28.5,-76.5 L28.0,-76.0 L28.0,-75.5 L27.5,-75.0 L27.5,-74.5 L27.0,-74.0 L27.0,-73.5 L26.5,-73.0 L26.0,-72.5 L25.5,-72.5 L25.0,-72.0 L24.5,-72.0 L24.0,-72.0 L23.5,-72.0 L23.0,-71.5 L22.5,-71.5 L22.0,-71.5 L21.5,-71.5 L21.0,-71.0 L20.5,-70.5 L20.5,-70.0 L20.0,-69.5 L19.5,-69.0 L19.5,-68.5 L20.0,-68.0 L20.0,-67.5 L20.0,-67.0 L20.0,-66.5 L20.0,-66.0 L20.0,-65.5 L20.0,-65.0 L20.0,-64.5 L20.0,-64.0 L20.0,-63.5 L20.0,-63.0 L20.0,-62.5 L20.0,-62.0 L20.0,-61.5 L19.5,-61.0 L19.0,-60.5 L18.5,-60.0 L18.0,-59.5 L17.5,-59.5 L17.0,-59.0 L16.5,-58.5 L16.0,-58.0 L15.5,-57.5 L15.5,-57.0 L15.0,-56.5 L14.5,-56.0 L14.0,-55.49999999999999 L13.5,-54.99999999999999 L13.0,-54.99999999999999 L13.0,-54.50000000000001 L12.5,-54.0 L12.0,-53.5 L12.0,-53.0 L11.5,-52.5 L11.5,-52.0 L11.0,-51.49999999999999 L10.5,-50.99999999999999 L10.5,-50.50000000000001 L10.0,-50.0 L9.5,-49.5 L9.0,-49.0 L9.0,-48.5 L9.0,-48.0 L8.5,-47.5 L8.5,-47.0 L8.5,-46.5 L8.5,-46.0 L8.5,-45.5 L8.0,-45.0 L8.0,-44.5 L8.0,-44.0 L8.0,-43.5 L7.5,-43.0 L7.5,-42.5 L7.5,-42.0 L7.5,-41.5 L7.0,-41.0 L7.0,-40.5 L7.0,-40.0 L7.0,-39.5 L6.5,-39.0 L6.5,-38.5 L6.5,-38.0 L6.0,-37.5 L6.0,-37.0 L6.0,-36.5 L5.5,-36.0 L5.0,-35.5 L5.0,-35.0 L4.5,-34.5 L4.5,-34.0 L4.5,-33.5 L4.5,-33.0 L4.0,-32.5 L4.0,-32.0 L4.0,-31.5 L4.0,-31.0 L4.0,-30.5 L4.0,-30.0 L4.0,-29.5 L4.0,-29.0 L4.0,-28.5 L4.0,-28.0 L4.0,-27.5 L4.0,-27.0 L4.0,-26.5 L4.0,-26.0 L4.0,-25.5 L4.0,-25.0 L4.0,-24.5 L4.0,-24.0 L4.5,-23.5 L4.5,-23.0 L4.5,-22.5 L4.5,-22.0 L4.5,-21.5 L5.0,-21.0 L5.0,-20.5 L5.5,-20.0 L5.5,-19.5 L5.5,-19.0 L6.0,-18.5 L6.0,-18.0 L6.5,-17.5 L6.5,-17.0 L7.0,-16.5 L7.0,-16.0 L7.5,-15.5 L7.5,-15.0 L8.0,-14.5 L8.0,-14.0 L8.5,-13.5 L8.5,-13.0 L8.5,-12.5 L8.5,-12.0 L8.5,-11.5 L9.0,-11.0 L9.0,-10.5 L9.0,-10.0 L9.5,-10.0 L10.0,-9.5 L10.5,-10.0 L11.0,-10.0 L11.5,-10.0 L12.0,-10.0 L12.5,-10.0 L13.0,-10.0 L13.5,-10.0 L14.0,-10.5 L14.5,-10.5 L15.0,-10.5 L15.5,-10.5 L16.0,-10.5 L16.5,-10.5 L17.0,-10.5 L17.5,-10.5 L18.0,-10.5 L18.5,-10.5 L19.0,-10.5 L19.5,-10.0 L20.0,-10.0 L20.5,-10.0 L21.0,-10.0 L21.5,-10.0 L22.0,-10.0 L22.5,-10.0 L23.0,-10.0 L23.5,-10.0 L24.0,-10.0 L24.5,-10.0 L25.0,-10.0 L25.5,-10.0 L26.0,-10.0 L26.5,-10.0 L27.0,-10.0 L27.5,-10.0 L28.0,-10.0 L28.5,-10.5 L29.0,-10.5 L29.5,-10.5 L30.0,-10.5 L30.5,-10.5 L31.0,-10.5 L31.5,-10.5 L32.0,-10.0 L32.5,-10.0 L33.0,-10.0 L33.5,-10.0 L34.0,-10.0 L34.5,-10.0 L35.0,-10.0 L35.5,-10.0 L36.0,-10.0 L36.5,-10.0 L37.0,-10.0 L37.5,-9.5 L38.0,-10.0 L38.5,-10.0 L39.0,-10.0 L39.5,-10.0 L40.0,-10.0 L40.5,-10.0 L41.0,-10.0 L41.5,-10.0 L42.0,-10.0 L42.5,-10.0 L43.0,-10.0 L43.5,-9.5 L44.0,-9.5 L44.5,-9.5 L45.0,-9.0 L45.5,-9.0 L46.0,-9.0 L46.5,-9.0 L47.0,-9.0 L47.5,-9.0 L48.0,-9.0 L48.5,-9.0 L49.0,-9.0 L49.5,-9.0 L50.0,-9.0 L50.5,-9.0 L51.0,-9.0 L51.5,-9.0 L52.0,-9.0 L52.5,-9.0 L53.0,-9.0 L53.5,-9.0 L54.0,-9.0 L54.5,-9.0 L55.0,-9.0 L55.5,-9.0 L56.0,-9.5 L56.5,-9.5 L57.0,-9.5 L57.5,-9.5 L58.0,-9.5 L58.5,-9.0 L59.0,-9.0 L59.5,-8.5 L60.0,-8.5 L60.5,-8.5 L61.0,-8.0 L61.5,-8.0 L62.0,-8.0 L62.5,-8.5 L63.0,-8.5 L63.5,-8.5 L64.0,-9.0 L64.5,-9.0 L65.0,-9.0 L65.5,-9.0 L66.0,-9.0 L66.5,-9.5 L67.0,-9.5 L67.5,-9.5 L68.0,-9.5 L68.5,-9.5 L69.0,-9.5 L69.5,-9.5 L70.0,-9.5 L70.5,-9.5 L71.0,-9.5 L71.5,-9.5 L72.0,-9.5 L72.5,-9.5 L73.0,-9.5 L73.5,-10.0 L74.0,-10.0 L74.5,-10.0 L75.0,-10.0 L75.5,-10.0 L76.0,-10.5 L76.5,-11.0 L77.0,-11.0 L77.5,-11.5 L78.0,-11.0 L78.5,-11.0 L79.0,-11.0 L79.5,-10.5 L80.0,-10.5 L80.5,-10.5 L81.0,-10.5 L81.5,-10.5 L82.0,-10.0 L82.5,-10.0 L83.0,-9.5 L83.5,-9.5 L84.0,-9.5 L84.5,-9.0 L85.0,-9.0 L85.5,-9.0 L86.0,-9.0 L86.50000000000001,-9.0 L87.0,-9.0 L87.5,-9.5 L88.0,-9.5 L88.50000000000001,-9.5 L89.0,-9.5 L89.5,-9.5 L90.0,-9.5 L90.50000000000001,-9.5 L91.0,-9.5 L91.5,-9.0 L92.0,-9.0 L92.50000000000001,-9.0 L93.0,-9.0 L93.5,-9.0 L94.0,-9.0 L94.50000000000001,-9.5 L95.0,-9.5 L95.5,-9.5 L96.0,-9.5 L96.50000000000001,-10.0 L97.0,-10.0 L97.5,-10.0 L98.0,-10.0 L98.50000000000001,-10.0 L99.0,-10.0 L99.5,-10.0 L100.0,-10.0 L100.50000000000001,-10.0 L101.0,-10.0 L101.5,-10.0 L102.0,-10.0 L102.50000000000001,-10.0 L103.0,-10.0 L103.5,-10.0 L104.0,-10.0 L104.50000000000001,-10.0 L105.0,-10.0 L105.5,-10.0 L106.0,-10.0 L106.50000000000001,-10.0 L107.0,-10.0 L107.5,-10.0 L108.0,-10.0 L108.50000000000001,-10.0 L109.0,-10.0 L109.5,-10.0 L110.0,-10.0 L110.50000000000001,-9.5 L111.0,-9.5 L111.5,-9.5 L112.0,-9.0 L112.50000000000001,-9.0 L113.0,-9.0 L113.5,-9.0 L114.0,-9.0 L114.50000000000001,-9.5 L115.0,-9.5 L115.5,-10.0 L116.0,-10.0 L116.0,-10.5 L116.0,-11.0 L116.0,-11.5 L116.0,-12.0 L116.0,-12.5 L116.0,-13.0 L116.50000000000001,-13.5 L116.50000000000001,-14.0 L116.50000000000001,-14.5 L117.0,-15.0 L117.5,-14.5 L118.0,-14.5 L118.50000000000001,-14.5 L119.0,-14.0 L119.0,-13.5 L119.0,-13.0 L119.5,-12.5 L120.0,-12.0 L120.50000000000001,-11.5 L121.0,-11.0 L121.5,-10.5 L122.0,-10.0 L122.50000000000001,-10.0 L123.0,-9.5 L123.5,-9.5 L124.0,-9.0 L124.50000000000001,-9.0 L125.0,-8.5 L125.5,-9.0 L126.0,-9.0 L126.50000000000001,-9.5 L127.0,-9.5 L127.5,-9.5 L128.0,-10.0 L128.5,-10.0 L129.0,-10.5 L129.5,-10.5 L130.0,-10.5 L130.5,-10.0 L131.0,-10.0 L131.5,-10.0 L132.0,-10.0 L132.5,-10.0 L133.0,-10.0 L133.5,-10.0 L134.0,-10.0 L134.5,-10.0 L135.0,-9.5 L135.5,-9.5 L136.0,-9.5 L136.5,-9.5 L137.0,-9.5 L137.5,-9.5 L138.0,-9.5 L138.5,-10.0 L139.0,-10.0 L139.5,-10.0 L139.5,-10.5 L139.5,-11.0 L139.5,-11.5 L139.0,-12.0 L139.0,-12.5 L139.0,-13.0 L139.0,-13.5 L139.0,-14.0 L139.0,-14.5 L139.0,-15.0 L139.0,-15.5 L139.0,-16.0 L138.5,-16.5 L138.5,-17.0 L138.5,-17.5 L138.5,-18.0 L139.0,-18.5 L139.5,-19.0 L139.5,-19.5 L140.0,-20.0 L140.5,-20.5 L141.0,-20.5 L141.5,-20.0 L142.0,-19.5 L142.5,-19.0 L142.5,-18.5 L143.0,-18.0 L143.5,-17.5 L143.5,-17.0 L143.5,-16.5 L144.0,-16.0 L144.5,-15.5 L145.0,-15.0 L145.0,-14.5 L145.5,-14.0 L145.5,-13.5 L145.0,-13.0 L145.0,-12.5 L145.0,-12.0 L144.5,-11.5 L144.0,-11.0 L144.0,-10.5 L144.0,-10.0 L144.5,-10.0 L145.0,-10.0 L145.5,-9.5 L146.0,-9.0 L146.5,-9.0 L147.0,-8.5 L147.5,-8.5 L148.0,-8.0 L148.5,-8.0 L149.0,-8.0 L149.5,-8.0 L150.0,-8.0 L150.5,-8.0 L151.0,-8.0 L151.5,-8.0 L152.0,-8.0 L152.5,-8.0 L153.0,-8.0 L153.5,-8.0 L154.0,-8.5 L154.5,-8.5 L155.0,-9.0 L155.5,-9.0 L156.0,-9.5 L156.5,-9.5 L157.0,-10.0 L157.5,-10.0 L157.5,-10.5 L157.5,-11.0 L157.5,-11.5 L157.5,-12.0 L157.5,-12.5 L157.5,-13.0 L157.5,-13.5 L157.5,-14.0 L158.0,-14.5 L158.5,-15.0 L159.0,-15.5 L159.5,-16.0 L160.0,-16.5 L160.5,-17.0 L161.0,-17.5 L161.0,-18.0 L161.0,-18.5 L161.5,-19.0 L161.5,-19.5 L161.5,-20.0 L162.0,-20.5 L162.0,-21.0 L162.0,-21.5 L162.5,-22.0 L162.5,-22.5 L162.5,-23.0 L163.0,-23.5 L163.0,-24.0 L163.0,-24.5 L163.0,-25.0 L163.0,-25.5 L163.0,-26.0 L163.0,-26.5 L163.0,-27.0 L163.0,-27.5 L163.0,-28.0 L163.0,-28.5 L163.0,-29.0 L163.0,-29.5 L163.0,-30.0 L163.0,-30.5 L163.0,-31.0 L163.0,-31.5 L162.5,-32.0 L162.5,-32.5 L162.5,-33.0 L162.5,-33.5 L162.5,-34.0 L162.5,-34.5 L162.5,-35.0 L162.5,-35.5 L162.5,-36.0 L162.5,-36.5 L162.5,-37.0 L163.0,-37.5 L162.5,-38.0 L162.5,-38.5 L162.5,-39.0 L162.5,-39.5 L162.5,-40.0 L162.5,-40.5 L162.5,-41.0 L162.5,-41.5 L162.0,-42.0 L162.0,-42.5 L162.0,-43.0 L161.5,-43.5 L161.5,-44.0 L161.5,-44.5 L161.0,-45.0 L161.0,-45.5 L160.5,-46.0 L160.5,-46.5 L160.5,-47.0 L160.0,-47.5 L160.0,-48.0 L159.5,-48.5 L159.5,-49.0 L159.5,-49.5 L159.0,-50.0 L159.0,-50.50000000000001 L159.0,-50.99999999999999 L158.5,-51.49999999999999 L158.5,-52.0 L158.0,-52.5 L158.0,-53.0 L157.5,-53.5 L157.5,-54.0 L157.0,-54.50000000000001 L156.5,-54.50000000000001 L156.0,-54.99999999999999 L155.5,-54.99999999999999 L155.0,-55.49999999999999 L154.5,-56.0 L154.0,-56.5 L153.5,-57.0 L153.0,-57.5 L153.0,-58.0 L152.5,-58.5 L152.5,-59.0 L152.5,-59.5 L152.0,-60.0 L152.0,-60.5 L152.0,-61.0 L152.0,-61.5 L151.5,-62.0 L151.5,-62.5 L151.5,-63.0 L151.5,-63.5 L151.0,-64.0 L151.0,-64.5 L151.0,-65.0 L150.5,-65.5 L150.5,-66.0 L150.0,-66.5 L150.0,-67.0 L149.5,-67.5 L149.0,-68.0 L148.5,-68.0 L148.0,-68.5 L147.5,-69.0 L147.0,-69.5 L147.0,-70.0 L146.5,-70.5 L146.0,-71.0 L146.0,-71.5 L145.5,-72.0 L145.5,-72.5 L145.5,-73.0 L145.0,-73.5 L144.5,-74.0 L144.0,-74.0 L143.5,-74.5 L143.0,-75.0 L142.5,-75.5 L142.0,-76.0 L142.0,-76.5 L141.5,-77.0 L141.0,-77.5 L140.5,-78.0 L140.5,-78.5 L140.0,-79.0 L140.0,-79.5 L139.5,-80.0 L139.5,-80.5 L139.5,-81.0 L139.5,-81.5 L139.5,-82.0 L139.0,-82.5 L139.0,-83.0 L139.0,-83.5 L139.0,-84.0 L139.0,-84.5 L139.0,-85.0 L138.5,-85.5 L138.5,-86.0 L138.0,-86.5 L137.5,-87.0 L137.0,-87.5 L136.5,-87.5 L136.0,-88.0 L135.5,-88.5 L135.0,-89.0 L134.5,-89.5 L134.0,-90.0 L133.5,-90.0 L133.0,-90.5 L132.5,-90.0 L132.0,-89.5 L131.5,-89.0 L131.5,-88.5 L131.0,-88.0 L131.0,-87.5 L131.0,-87.0 L130.5,-86.5 L130.5,-86.0 L130.5,-85.5 L130.0,-85.0 L130.0,-84.5 L130.0,-84.0 L130.0,-83.5 L130.0,-83.0 L130.0,-82.5 L130.0,-82.0 L130.0,-81.5 L130.0,-81.0 L130.0,-80.5 L130.0,-80.0 L129.5,-79.5 L129.5,-79.0 L129.5,-78.5 L129.0,-78.0 L128.5,-77.5 L128.0,-77.0 L127.5,-76.5 L127.0,-76.0 L126.50000000000001,-76.0 L126.0,-75.5 L125.5,-75.5 L125.0,-75.5 L124.50000000000001,-75.0 L124.0,-74.5 L123.5,-74.0 L123.0,-73.5 L122.50000000000001,-73.0 L122.50000000000001,-72.5 L122.0,-72.0 L122.0,-71.5 L122.0,-71.0 L121.5,-70.5 L121.5,-70.0 L121.5,-69.5 L121.0,-69.0 L120.50000000000001,-69.5 L120.50000000000001,-70.0 L120.50000000000001,-70.5 L120.50000000000001,-71.0 L120.0,-71.5 L120.0,-72.0 L120.0,-72.5 L119.5,-73.0 L119.5,-73.5 L119.5,-74.0 L119.0,-74.5 L119.0,-75.0 L119.0,-75.5 L119.0,-76.0 L118.50000000000001,-76.5 L118.50000000000001,-77.0 L118.50000000000001,-77.5 L118.0,-78.0 L117.5,-78.5 L117.5,-79.0 L117.0,-79.5 L116.50000000000001,-80.0 L116.0,-80.5 L115.5,-81.0 L115.0,-81.5 L114.50000000000001,-81.5 L114.0,-82.0 L113.5,-82.5 L113.0,-82.5 L112.50000000000001,-83.0 L112.0,-83.5 L112.0,-84.0 L111.5,-84.5 L111.5,-85.0 L111.5,-85.5 L111.5,-86.0 L111.5,-86.5 L111.5,-87.0 L111.0,-87.5 L111.0,-88.0 L111.0,-88.5 L111.0,-89.0 L111.0,-89.5 L111.0,-90.0 L111.0,-90.5 L111.0,-91.0 L111.0,-91.5 L111.0,-92.0 L111.0,-92.5 L111.0,-93.0 L110.50000000000001,-93.5 L110.0,-94.0 L109.5,-94.5 L109.0,-94.5 L108.50000000000001,-94.5 L108.0,-94.5 L107.5,-95.0 L107.0,-95.0 L106.50000000000001,-95.0 L106.0,-95.0 L105.5,-95.0 L105.0,-95.0" stroke="red" stroke-width="2" fill="none" />
<path d="M0,-114 L0,-113.5 L0,-113.0 L0,-112.5 L0,-112.0 L0,-111.5 L0,-111.0 L0,-110.5 L0,-110.0 L0,-109.5 L0,-109.0 L0,-108.5 L0,-108.0 L0,-107.5 L0,-107.0 L0,-106.5 L0,-106.0 L0,-105.5 L0,-105.0 L0,-104.5 L0,-104.0 L0,-103.5 L0,-103.0 L0,-102.5 L0,-102.0 L0,-101.5 L0,-101.0 L0,-100.5 L0,-100.0 L0,-99.5 L0,-99.0 L0,-98.5 L0,-98.0 L0,-97.5 L0,-97.0 L0,-96.5 L0,-96.0 L0,-95.5 L0,-95.0 L0,-94.5 L0,-94.0 L0,-93.5 L0,-93.0 L0,-92.5 L0,-92.0 L0,-91.5 L0,-91.0 L0,-90.5 L0,-90.0 L0,-89.5 L0,-89.0 L0,-88.5 L0,-88.0 L0,-87.5 L0,-87.0 L0,-86.5 L0,-86.0 L0,-85.5 L0,-85.0 L0,-84.5 L0,-84.0 L0,-83.5 L0,-83.0 L0,-82.5 L0,-82.0 L0,-81.5 L0,-81.0 L0,-80.5 L0,-80.0 L0,-79.5 L0,-79.0 L0,-78.5 L0,-78.0 L0,-77.5 L0,-77.0 L0,-76.5 L0,-76.0 L0,-75.5 L0,-75.0 L0,-74.5 L0,-74.0 L0,-73.5 L0,-73.0 L0,-72.5 L0,-72.0 L0,-71.5 L0,-71.0 L0,-70.5 L0,-70.0 L0,-69.5 L0,-69.0 L0,-68.5 L0,-68.0 L0,-67.5 L0,-67.0 L0,-66.5 L0,-66.0 L0,-65.5 L0,-65.0 L0,-64.5 L0,-64.0 L0,-63.5 L0,-63.0 L0,-62.5 L0,-62.0 L0,-61.5 L0,-61.0 L0,-60.5 L0,-60.0 L0,-59.5 L0,-59.0 L0,-58.5 L0,-58.0 L0,-57.5 L0,-57.0 L0,-56.5 L0,-56.0 L0,-55.49999999999999 L0,-54.99999999999999 L0,-54.50000000000001 L0,-54.0 L0,-53.5 L0,-53.0 L0,-52.5 L0,-52.0 L0,-51.49999999999999 L0,-50.99999999999999 L0,-50.50000000000001 L0,-50.0 L0,-49.5 L0,-49.0 L0,-48.5 L0,-48.0 L0,-47.5 L0,-47.0 L0,-46.5 L0,-46.0 L0,-45.5 L0,-45.0 L0,-44.5 L0,-44.0 L0,-43.5 L0,-43.0 L0,-42.5 L0,-42.0 L0,-41.5 L0,-41.0 L0,-40.5 L0,-40.0 L0,-39.5 L0,-39.0 L0,-38.5 L0,-38.0 L0,-37.5 L0,-37.0 L0,-36.5 L0,-36.0 L0,-35.5 L0,-35.0 L0,-34.5 L0,-34.0 L0,-33.5 L0,-33.0 L0,-32.5 L0,-32.0 L0,-31.5 L0,-31.0 L0,-30.5 L0,-30.0 L0,-29.5 L0.5,-29.5 L1.0,-29.5 L1.5,-29.5 L2.0,-29.5 L2.5,-29.0 L3.0,-29.0 L3.5,-28.5 L3.5,-29.0 L3.5,-29.5 L3.5,-30.0 L3.5,-30.5 L3.5,-31.0 L3.5,-31.5 L3.5,-32.0 L3.5,-32.5 L4.0,-33.0 L4.0,-33.5 L4.0,-34.0 L4.0,-34.5 L4.5,-35.0 L4.5,-35.5 L5.0,-36.0 L5.5,-36.5 L5.5,-37.0 L5.5,-37.5 L6.0,-38.0 L6.0,-38.5 L6.0,-39.0 L6.5,-39.5 L6.5,-40.0 L6.5,-40.5 L6.5,-41.0 L7.0,-41.5 L7.0,-42.0 L7.0,-42.5 L7.0,-43.0 L7.5,-43.5 L7.5,-44.0 L7.5,-44.5 L7.5,-45.0 L8.0,-45.5 L8.0,-46.0 L8.0,-46.5 L8.0,-47.0 L8.0,-47.5 L8.5,-48.0 L8.5,-48.5 L8.5,-49.0 L9.0,-49.5 L9.5,-50.0 L10.0,-50.50000000000001 L10.0,-50.99999999999999 L10.5,-51.49999999999999 L11.0,-52.0 L11.0,-52.5 L11.5,-53.0 L11.5,-53.5 L12.0,-54.0 L12.5,-54.50000000000001 L12.5,-54.99999999999999 L13.0,-55.49999999999999 L13.5,-55.49999999999999 L14.0,-56.0 L14.5,-56.5 L15.0,-57.0 L15.0,-57.5 L15.5,-58.0 L16.0,-58.5 L16.5,-59.0 L17.0,-59.5 L17.5,-60.0 L18.0,-60.0 L18.5,-60.5 L19.0,-61.0 L19.5,-61.5 L19.5,-62.0 L19.5,-62.5 L19.5,-63.0 L19.5,-63.5 L19.5,-64.0 L19.5,-64.5 L19.5,-65.0 L19.5,-65.5 L19.5,-66.0 L19.5,-66.5 L19.5,-67.0 L19.5,-67.5 L19.5,-68.0 L19.0,-68.5 L19.0,-69.0 L19.5,-69.5 L20.0,-70.0 L20.0,-70.5 L20.5,-71.0 L21.0,-71.5 L21.5,-72.0 L22.0,-72.0 L22.5,-72.0 L23.0,-72.0 L23.5,-72.5 L24.0,-72.5 L24.5,-72.5 L25.0,-72.5 L25.5,-73.0 L26.0,-73.0 L26.5,-73.5 L26.5,-74.0 L27.0,-74.5 L27.0,-75.0 L27.5,-75.5 L27.5,-76.0 L28.0,-76.5 L28.0,-77.0 L28.5,-77.5 L29.0,-78.0 L29.5,-78.0 L30.0,-78.5 L30.5,-79.0 L31.0,-79.0 L31.5,-79.5 L32.0,-80.0 L32.5,-80.5 L33.0,-80.5 L33.5,-81.0 L34.0,-81.5 L34.0,-82.0 L34.5,-82.5 L34.5,-83.0 L35.0,-83.5 L35.0,-84.0 L35.0,-84.5 L35.0,-85.0 L35.0,-85.5 L35.0,-86.0 L35.0,-86.5 L35.0,-87.0 L35.0,-87.5 L35.0,-88.0 L35.0,-88.5 L35.0,-89.0 L35.5,-89.5 L35.5,-90.0 L35.5,-90.5 L36.0,-91.0 L36.0,-91.5 L36.0,-92.0 L36.5,-92.5 L37.0,-93.0 L37.5,-93.5 L38.0,-93.5 L38.5,-94.0 L39.0,-94.0 L39.5,-94.5 L40.0,-94.5 L40.5,-94.5 L41.0,-95.0 L41.5,-95.0 L42.0,-95.0 L42.5,-94.5 L43.0,-94.0 L43.5,-94.0 L44.0,-93.5 L44.5,-93.0 L44.5,-92.5 L45.0,-92.0 L45.0,-91.5 L45.0,-91.0 L45.5,-90.5 L45.5,-90.0 L46.0,-89.5 L46.0,-89.0 L46.0,-88.5 L46.0,-88.0 L46.0,-87.5 L46.0,-87.0 L46.0,-86.5 L46.0,-86.0 L46.0,-85.5 L46.0,-85.0 L46.0,-84.5 L46.5,-84.0 L46.5,-83.5 L47.0,-83.0 L47.0,-82.5 L47.5,-82.0 L47.5,-81.5 L48.0,-81.0 L48.5,-80.5 L49.0,-80.5 L49.5,-80.5 L50.0,-80.0 L50.5,-79.5 L51.0,-79.0 L51.5,-78.5 L51.5,-78.0 L52.0,-77.5 L52.5,-77.0 L52.5,-76.5 L53.0,-76.0 L53.0,-75.5 L53.0,-75.0 L53.5,-74.5 L54.0,-74.0 L54.0,-73.5 L54.5,-73.0 L54.5,-72.5 L55.0,-72.0 L55.5,-71.5 L55.5,-71.0 L56.0,-70.5 L56.5,-70.5 L57.0,-70.0 L57.5,-70.0 L58.0,-70.0 L58.5,-70.5 L59.0,-71.0 L59.5,-71.0 L60.0,-71.5 L60.5,-71.5 L61.0,-71.5 L61.5,-72.0 L62.0,-72.0 L62.5,-72.5 L63.0,-73.0 L63.5,-73.5 L64.0,-74.0 L64.0,-74.5 L64.5,-75.0 L65.0,-75.5 L65.0,-76.0 L65.5,-76.5 L65.5,-77.0 L65.5,-77.5 L65.5,-78.0 L65.5,-78.5 L65.5,-79.0 L65.5,-79.5 L65.5,-80.0 L65.5,-80.5 L65.5,-81.0 L66.0,-81.5 L66.0,-82.0 L66.0,-82.5 L66.5,-83.0 L66.5,-83.5 L67.0,-84.0 L67.5,-84.5 L68.0,-85.0 L68.5,-85.5 L69.0,-86.0 L69.5,-86.5 L70.0,-86.0 L70.5,-86.0 L71.0,-85.5 L71.5,-85.0 L72.0,-85.0 L72.5,-84.5 L73.0,-84.5 L73.5,-84.0 L74.0,-83.5 L74.5,-83.0 L75.0,-82.5 L75.5,-82.0 L75.5,-81.5 L75.5,-81.0 L76.0,-80.5 L76.0,-80.0 L76.0,-79.5 L76.0,-79.0 L76.0,-78.5 L76.0,-78.0 L76.0,-77.5 L76.0,-77.0 L76.0,-76.5 L76.0,-76.0 L76.0,-75.5 L76.0,-75.0 L76.5,-74.5 L76.5,-74.0 L76.5,-73.5 L76.5,-73.0 L77.0,-73.0 L77.5,-72.5 L78.0,-72.0 L78.5,-72.0 L79.0,-71.5 L79.5,-71.5 L80.0,-71.0 L80.5,-71.0 L81.0,-70.5 L81.5,-70.5 L82.0,-70.0 L82.5,-70.0 L83.0,-69.5 L83.5,-69.5 L84.0,-69.0 L84.5,-68.5 L85.0,-68.0 L85.5,-68.0 L86.0,-68.5 L86.50000000000001,-68.5 L87.0,-69.0 L87.5,-69.5 L88.0,-70.0 L88.50000000000001,-70.0 L89.0,-70.5 L89.5,-70.5 L90.0,-70.5 L90.50000000000001,-70.5 L91.0,-71.0 L91.5,-71.0 L92.0,-71.0 L92.50000000000001,-71.5 L93.0,-72.0 L93.0,-72.5 L93.0,-73.0 L93.5,-73.5 L93.5,-74.0 L94.0,-74.5 L94.0,-75.0 L94.0,-75.5 L94.50000000000001,-76.0 L94.50000000000001,-76.5 L94.50000000000001,-77.0 L95.0,-77.5 L95.0,-78.0 L95.0,-78.5 L95.5,-79.0 L95.5,-79.5 L95.5,-80.0 L96.0,-80.5 L96.0,-81.0 L96.50000000000001,-81.5 L97.0,-82.0 L97.5,-82.0 L98.0,-82.5 L98.50000000000001,-82.5 L99.0,-83.0 L99.5,-83.0 L100.0,-83.5 L100.50000000000001,-83.5 L101.0,-84.0 L101.5,-84.5 L101.5,-85.0 L101.5,-85.5 L101.5,-86.0 L101.5,-86.5 L101.5,-87.0 L101.5,-87.5 L101.5,-88.0 L101.5,-88.5 L101.5,-89.0 L101.5,-89.5 L101.5,-90.0 L101.5,-90.5 L101.5,-91.0 L101.5,-91.5 L101.5,-92.0 L101.5,-92.5 L101.5,-93.0 L102.0,-93.5 L102.50000000000001,-94.0 L103.0,-94.5 L103.5,-95.0 L104.0,-95.0 L104.50000000000001,-95.5 L105.0,-95.5 L105.5,-95.5 L106.0,-95.5 L106.50000000000001,-95.5 L107.0,-95.5 L107.5,-95.5 L108.0,-95.0 L108.50000000000001,-95.0 L109.0,-95.0 L109.5,-95.0 L110.0,-94.5 L110.50000000000001,-94.0 L111.0,-93.5 L111.5,-93.0 L111.5,-92.5 L111.5,-92.0 L111.5,-91.5 L111.5,-91.0 L111.5,-90.5 L111.5,-90.0 L111.5,-89.5 L111.5,-89.0 L111.5,-88.5 L111.5,-88.0 L111.5,-87.5 L112.0,-87.0 L112.0,-86.5 L112.0,-86.0 L112.0,-85.5 L112.0,-85.0 L112.0,-84.5 L112.50000000000001,-84.0 L112.50000000000001,-83.5 L113.0,-83.0 L113.5,-83.0 L114.0,-82.5 L114.50000000000001,-82.0 L115.0,-82.0 L115.5,-81.5 L116.0,-81.0 L116.50000000000001,-80.5 L117.0,-80.0 L117.5,-79.5 L118.0,-79.0 L118.0,-78.5 L118.50000000000001,-78.0 L119.0,-77.5 L119.0,-77.0 L119.0,-76.5 L119.5,-76.0 L119.5,-75.5 L119.5,-75.0 L119.5,-74.5 L120.0,-74.0 L120.0,-73.5 L120.0,-73.0 L120.50000000000001,-72.5 L120.50000000000001,-72.0 L120.50000000000001,-71.5 L121.0,-71.0 L121.0,-70.5 L121.0,-70.0 L121.0,-69.5 L121.0,-70.0 L121.0,-70.5 L121.5,-71.0 L121.5,-71.5 L121.5,-72.0 L122.0,-72.5 L122.0,-73.0 L122.50000000000001,-73.5 L123.0,-74.0 L123.5,-74.5 L124.0,-75.0 L124.50000000000001,-75.5 L125.0,-76.0 L125.5,-76.0 L126.0,-76.0 L126.50000000000001,-76.5 L127.0,-76.5 L127.5,-77.0 L128.0,-77.5 L128.5,-78.0 L129.0,-78.5 L129.0,-79.0 L129.0,-79.5 L129.5,-80.0 L129.5,-80.5 L129.5,-81.0 L129.5,-81.5 L129.5,-82.0 L129.5,-82.5 L129.5,-83.0 L129.5,-83.5 L129.5,-84.0 L129.5,-84.5 L129.5,-85.0 L130.0,-85.5 L130.0,-86.0 L130.0,-86.5 L130.5,-87.0 L130.5,-87.5 L130.5,-88.0 L131.0,-88.5 L131.0,-89.0 L131.5,-89.5 L132.0,-90.0 L132.5,-90.5 L133.0,-91.0 L133.5,-90.5 L134.0,-90.5 L134.5,-90.0 L135.0,-89.5 L135.5,-89.0 L136.0,-88.5 L136.5,-88.0 L137.0,-88.0 L137.5,-87.5 L138.0,-87.0 L138.5,-86.5 L139.0,-86.0 L139.0,-85.5 L139.5,-85.0 L139.5,-84.5 L139.5,-84.0 L139.5,-83.5 L139.5,-83.0 L139.5,-82.5 L140.0,-82.0 L140.0,-81.5 L140.0,-81.0 L140.0,-80.5 L140.0,-80.0 L140.5,-79.5 L140.5,-79.0 L141.0,-78.5 L141.0,-78.0 L141.5,-77.5 L142.0,-77.0 L142.5,-76.5 L142.5,-76.0 L143.0,-75.5 L143.5,-75.0 L144.0,-74.5 L144.5,-74.5 L145.0,-74.0 L145.5,-73.5 L146.0,-73.0 L146.0,-72.5 L146.0,-72.0 L146.5,-71.5 L146.5,-71.0 L147.0,-70.5 L147.5,-70.0 L147.5,-69.5 L148.0,-69.0 L148.5,-68.5 L149.0,-68.5 L149.5,-68.0 L150.0,-67.5 L150.5,-67.0 L150.5,-66.5 L151.0,-66.0 L151.0,-65.5 L151.5,-65.0 L151.5,-64.5 L151.5,-64.0 L152.0,-63.5 L152.0,-63.0 L152.0,-62.5 L152.0,-62.0 L152.5,-61.5 L152.5,-61.0 L152.5,-60.5 L152.5,-60.0 L153.0,-59.5 L153.0,-59.0 L153.0,-58.5 L153.5,-58.0 L153.5,-57.5 L154.0,-57.0 L154.5,-56.5 L155.0,-56.0 L155.5,-55.49999999999999 L156.0,-55.49999999999999 L156.5,-54.99999999999999 L157.0,-54.99999999999999 L157.5,-54.50000000000001 L158.0,-54.0 L158.0,-53.5 L158.5,-53.0 L158.5,-52.5 L159.0,-52.0 L159.0,-51.49999999999999 L159.5,-50.99999999999999 L159.5,-50.50000000000001 L159.5,-50.0 L160.0,-49.5 L160.0,-49.0 L160.0,-48.5 L160.5,-48.0 L160.5,-47.5 L161.0,-47.0 L161.0,-46.5 L161.0,-46.0 L161.5,-45.5 L161.5,-45.0 L162.0,-44.5 L162.0,-44.0 L162.0,-43.5 L162.5,-43.0 L162.5,-42.5 L162.5,-42.0 L163.0,-41.5 L163.0,-41.0 L163.0,-40.5 L163.0,-40.0 L163.0,-39.5 L163.0,-39.0 L163.0,-38.5 L163.0,-38.0 L163.5,-37.5 L163.0,-37.0 L163.0,-36.5 L163.0,-36.0 L163.0,-35.5 L163.0,-35.0 L163.0,-34.5 L163.0,-34.0 L163.0,-33.5 L163.0,-33.0 L163.0,-32.5 L163.0,-32.0 L163.5,-31.5 L163.5,-31.0 L163.5,-30.5 L163.5,-30.0 L163.5,-29.5 L163.5,-29.0 L163.5,-28.5 L163.5,-28.0 L163.5,-27.5 L163.5,-27.0 L163.5,-26.5 L163.5,-26.0 L163.5,-25.5 L163.5,-25.0 L163.5,-24.5 L163.5,-24.0 L163.5,-23.5 L163.5,-23.0 L164.0,-22.5 L164.0,-22.0 L164.5,-21.5 L165.0,-21.5 L165.5,-21.5 L166.0,-21.5 L166.5,-21.5 L167.0,-21.5 L167.5,-21.5 L168.0,-21.5 L168.5,-21.5 L169.0,-21.5 L169.5,-21.5 L170.0,-21.5 L170.5,-21.5 L170.5,-22.0 L170.5,-22.5 L170.5,-23.0 L170.5,-23.5 L170.5,-24.0 L170.5,-24.5 L170.5,-25.0 L170.5,-25.5 L170.5,-26.0 L170.5,-26.5 L170.5,-27.0 L170.5,-27.5 L170.5,-28.0 L170.5,-28.5 L170.5,-29.0 L170.5,-29.5 L170.5,-30.0 L170.5,-30.5 L170.5,-31.0 L170.5,-31.5 L170.5,-32.0 L170.5,-32.5 L170.5,-33.0 L170.5,-33.5 L170.5,-34.0 L170.5,-34.5 L170.5,-35.0 L170.5,-35.5 L170.5,-36.0 L170.5,-36.5 L170.5,-37.0 L170.5,-37.5 L170.5,-38.0 L170.5,-38.5 L170.5,-39.0 L170.5,-39.5 L170.5,-40.0 L170.5,-40.5 L170.5,-41.0 L170.5,-41.5 L170.5,-42.0 L170.5,-42.5 L170.5,-43.0 L170.5,-43.5 L170.5,-44.0 L170.5,-44.5 L170.5,-45.0 L170.5,-45.5 L170.5,-46.0 L170.5,-46.5 L170.5,-47.0 L170.5,-47.5 L170.5,-48.0 L170.5,-48.5 L170.5,-49.0 L170.5,-49.5 L170.5,-50.0 L170.5,-50.50000000000001 L170.5,-50.99999999999999 L170.5,-51.49999999999999 L170.5,-52.0 L170.5,-52.5 L170.5,-53.0 L170.5,-53.5 L170.5,-54.0 L170.5,-54.50000000000001 L170.5,-54.99999999999999 L170.5,-55.49999999999999 L170.5,-56.0 L170.5,-56.5 L170.5,-57.0 L170.5,-57.5 L170.5,-58.0 L170.5,-58.5 L170.5,-59.0 L170.5,-59.5 L170.5,-60.0 L170.5,-60.5 L170.5,-61.0 L170.5,-61.5 L170.5,-62.0 L170.5,-62.5 L170.5,-63.0 L170.5,-63.5 L170.5,-64.0 L170.5,-64.5 L170.5,-65.0 L170.5,-65.5 L170.5,-66.0 L170.5,-66.5 L170.5,-67.0 L170.5,-67.5 L170.5,-68.0 L170.5,-68.5 L170.5,-69.0 L170.5,-69.5 L170.5,-70.0 L170.5,-70.5 L170.5,-71.0 L170.5,-71.5 L170.5,-72.0 L170.5,-72.5 L170.5,-73.0 L170.5,-73.5 L170.5,-74.0 L170.5,-74.5 L170.5,-75.0 L170.5,-75.5 L170.5,-76.0 L170.5,-76.5 L170.5,-77.0 L170.5,-77.5 L170.5,-78.0 L170.5,-78.5 L170.5,-79.0 L170.5,-79.5 L170.5,-80.0 L170.5,-80.5 L170.5,-81.0 L170.5,-81.5 L170.5,-82.0 L170.5,-82.5 L170.5,-83.0 L170.5,-83.5 L170.5,-84.0 L170.5,-84.5 L170.5,-85.0 L170.5,-85.5 L170.5,-86.0 L170.5,-86.5 L170.5,-87.0 L170.5,-87.5 L170.5,-88.0 L170.5,-88.5 L170.5,-89.0 L170.5,-89.5 L170.5,-90.0 L170.5,-90.5 L170.5,-91.0 L170.5,-91.5 L170.5,-92.0 L170.5,-92.5 L170.5,-93.0 L170.5,-93.5 L170.5,-94.0 L170.5,-94.5 L170.5,-95.0 L170.5,-95.5 L170.5,-96.0 L170.5,-96.5 L170.5,-97.0 L170.5,-97.5 L170.5,-98.0 L170.5,-98.5 L170.5,-99.0 L170.5,-99.5 L170.5,-100.0 L170.5,-100.5 L170.5,-101.0 L170.5,-101.5 L170.5,-102.0 L170.5,-102.5 L170.5,-103.0 L170.5,-103.5 L170.5,-104.0 L170.5,-104.5 L170.5,-105.0 L170.5,-105.5 L170.5,-106.0 L170.5,-106.5 L170.5,-107.0 L170.5,-107.5 L170.5,-108.0 L170.5,-108.5 L170.5,-109.0 L170.5,-109.5 L170.5,-110.0 L170.5,-110.5 L170.5,-111.0 L170.5,-111.5 L170.5,-112.0 L170.5,-112.5 L170.5,-113.0 L170.5,-113.5 L170.5,-114 L170.0,-114 L169.5,-114 L169.0,-114 L168.5,-114 L168.0,-114 L167.5,-114 L167.0,-114 L166.5,-114 L166.0,-114 L165.5,-114 L165.0,-114 L164.5,-114 L164.0,-114 L163.5,-114 L163.0,-114 L162.5,-114 L162.0,-114 L161.5,-114 L161.0,-114 L160.5,-114 L160.0,-114 L159.5,-114 L159.0,-114 L158.5,-114 L158.0,-114 L157.5,-114 L157.0,-114 L156.5,-114 L156.0,-114 L155.5,-114 L155.0,-114 L154.5,-114 L154.0,-114 L153.5,-114 L153.0,-114 L152.5,-114 L152.0,-114 L151.5,-114 L151.0,-114 L150.5,-114 L150.0,-114 L149.5,-114 L149.0,-114 L148.5,-114 L148.0,-114 L147.5,-114 L147.0,-114 L146.5,-114 L146.0,-114 L145.5,-114 L145.0,-114 L144.5,-114 L144.0,-114 L143.5,-114 L143.0,-114 L142.5,-114 L142.0,-114 L141.5,-114 L141.0,-114 L140.5,-114 L140.0,-114 L139.5,-114 L139.0,-114 L138.5,-114 L138.0,-114 L137.5,-114 L137.0,-114 L136.5,-114 L136.0,-114 L135.5,-114 L135.0,-114 L134.5,-114 L134.0,-114 L133.5,-114 L133.0,-114 L132.5,-114 L132.0,-114 L131.5,-114 L131.0,-114 L130.5,-114 L130.0,-114 L129.5,-114 L129.0,-114 L128.5,-114 L128.0,-114 L127.5,-114 L127.0,-114 L126.50000000000001,-114 L126.0,-114 L125.5,-114 L125.0,-114 L124.50000000000001,-114 L124.0,-114 L123.5,-114 L123.0,-114 L122.50000000000001,-114 L122.0,-114 L121.5,-114 L121.0,-114 L120.50000000000001,-114 L120.0,-114 L119.5,-114 L119.0,-114 L118.50000000000001,-114 L118.0,-114 L117.5,-114 L117.0,-114 L116.50000000000001,-114 L116.0,-114 L115.5,-114 L115.0,-114 L114.50000000000001,-114 L114.0,-114 L113.5,-114 L113.0,-114 L112.50000000000001,-114 L112.0,-114 L111.5,-114 L111.0,-114 L110.50000000000001,-114 L110.0,-114 L109.5,-114 L109.0,-114 L108.50000000000001,-114 L108.0,-114 L107.5,-114 L107.0,-114 L106.50000000000001,-114 L106.0,-114 L105.5,-114 L105.0,-114 L104.50000000000001,-114 L104.0,-114 L103.5,-114 L103.0,-114 L102.50000000000001,-114 L102.0,-114 L101.5,-114 L101.0,-114 L100.50000000000001,-114 L100.0,-114 L99.5,-114 L99.0,-114 L98.50000000000001,-114 L98.0,-114 L97.5,-114 L97.0,-114 L96.50000000000001,-114 L96.0,-114 L95.5,-114 L95.0,-114 L94.50000000000001,-114 L94.0,-114 L93.5,-114 L93.0,-114 L92.50000000000001,-114 L92.0,-114 L91.5,-114 L91.0,-114 L90.50000000000001,-114 L90.0,-114 L89.5,-114 L89.0,-114 L88.50000000000001,-114 L88.0,-114 L87.5,-114 L87.0,-114 L86.50000000000001,-114 L86.0,-114 L85.5,-114 L85.0,-114 L84.5,-114 L84.0,-114 L83.5,-114 L83.0,-114 L82.5,-114 L82.0,-114 L81.5,-114 L81.0,-114 L80.5,-114 L80.0,-114 L79.5,-114 L79.0,-114 L78.5,-114 L78.0,-114 L77.5,-114 L77.0,-114 L76.5,-114 L76.0,-114 L75.5,-114 L75.0,-114 L74.5,-114 L74.0,-114 L73.5,-114 L73.0,-114 L72.5,-114 L72.0,-114 L71.5,-114 L71.0,-114 L70.5,-114 L70.0,-114 L69.5,-114 L69.0,-114 L68.5,-114 L68.0,-114 L67.5,-114 L67.0,-114 L66.5,-114 L66.0,-114 L65.5,-114 L65.0,-114 L64.5,-114 L64.0,-114 L63.5,-114 L63.0,-114 L62.5,-114 L62.0,-114 L61.5,-114 L61.0,-114 L60.5,-114 L60.0,-114 L59.5,-114 L59.0,-114 L58.5,-114 L58.0,-114 L57.5,-114 L57.0,-114 L56.5,-114 L56.0,-114 L55.5,-114 L55.0,-114 L54.5,-114 L54.0,-114 L53.5,-114 L53.0,-114 L52.5,-114 L52.0,-114 L51.5,-114 L51.0,-114 L50.5,-114 L50.0,-114 L49.5,-114 L49.0,-114 L48.5,-114 L48.0,-114 L47.5,-114 L47.0,-114 L46.5,-114 L46.0,-114 L45.5,-114 L45.0,-114 L44.5,-114 L44.0,-114 L43.5,-114 L43.0,-114 L42.5,-114 L42.0,-114 L41.5,-114 L41.0,-114 L40.5,-114 L40.0,-114 L39.5,-114 L39.0,-114 L38.5,-114 L38.0,-114 L37.5,-114 L37.0,-114 L36.5,-114 L36.0,-114 L35.5,-114 L35.0,-114 L34.5,-114 L34.0,-114 L33.5,-114 L33.0,-114 L32.5,-114 L32.0,-114 L31.5,-114 L31.0,-114 L30.5,-114 L30.0,-114 L29.5,-114 L29.0,-114 L28.5,-114 L28.0,-114 L27.5,-114 L27.0,-114 L26.5,-114 L26.0,-114 L25.5,-114 L25.0,-114 L24.5,-114 L24.0,-114 L23.5,-114 L23.0,-114 L22.5,-114 L22.0,-114 L21.5,-114 L21.0,-114 L20.5,-114 L20.0,-114 L19.5,-114 L19.0,-114 L18.5,-114 L18.0,-114 L17.5,-114 L17.0,-114 L16.5,-114 L16.0,-114 L15.5,-114 L15.0,-114 L14.5,-114 L14.0,-114 L13.5,-114 L13.0,-114 L12.5,-114 L12.0,-114 L11.5,-114 L11.0,-114 L10.5,-114 L10.0,-114 L9.5,-114 L9.0,-114 L8.5,-114 L8.0,-114 L7.5,-114 L7.0,-114 L6.5,-114 L6.0,-114 L5.5,-114 L5.0,-114 L4.5,-114 L4.0,-114 L3.5,-114 L3.0,-114 L2.5,-114 L2.0,-114 L1.5,-114 L1.0,-114 L0.5,-114" stroke="blue" stroke-width="2" fill="none" />
<path d="M0,-29.0 L0,-28.5 L0,-28.0 L0,-27.5 L0,-27.0 L0,-26.5 L0,-26.0 L0,-25.5 L0,-25.0 L0,-24.5 L0,-24.0 L0,-23.5 L0,-23.0 L0,-22.5 L0,-22.0 L0,-21.5 L0,-21.0 L0,-20.5 L0,-20.0 L0,-19.5 L0,-19.0 L0,-18.5 L0,-18.0 L0,-17.5 L0,-17.0 L0,-16.5 L0,-16.0 L0,-15.5 L0,-15.0 L0,-14.5 L0,-14.0 L0,-13.5 L0,-13.0 L0,-12.5 L0,-12.0 L0,-11.5 L0,-11.0 L0,-10.5 L0,-10.0 L0,-9.5 L0,-9.0 L0,-8.5 L0,-8.0 L0,-7.5 L0,-7.0 L0,-6.5 L0,-6.0 L0,-5.5 L0,-5.0 L0,-4.5 L0,-4.0 L0,-3.5 L0,-3.0 L0,-2.5 L0,-2.0 L0,-1.5 L0,-1.0 L0,-0.5 L0.5,-0.5 L1.0,-0.5 L1.5,-0.5 L2.0,-0.5 L2.5,-0.5 L3.0,-0.5 L3.5,-0.5 L4.0,-0.5 L4.5,-0.5 L5.0,-0.5 L5.5,-0.5 L6.0,-0.5 L6.5,-0.5 L7.0,-0.5 L7.5,-0.5 L8.0,-0.5 L8.5,-0.5 L9.0,-0.5 L9.5,-0.5 L10.0,-0.5 L10.5,-0.5 L11.0,-0.5 L11.5,-0.5 L12.0,-0.5 L12.5,-0.5 L13.0,-0.5 L13.5,-0.5 L14.0,-0.5 L14.5,-0.5 L15.0,-0.5 L15.5,-0.5 L16.0,-0.5 L16.5,-0.5 L17.0,-0.5 L17.5,-0.5 L18.0,-0.5 L18.5,-0.5 L19.0,-0.5 L19.5,-0.5 L20.0,-0.5 L20.5,-0.5 L21.0,-0.5 L21.5,-0.5 L22.0,-0.5 L22.5,-0.5 L23.0,-0.5 L23.5,-0.5 L24.0,-0.5 L24.5,-0.5 L25.0,-0.5 L25.5,-0.5 L26.0,-0.5 L26.5,-0.5 L27.0,-0.5 L27.5,-0.5 L28.0,-0.5 L28.5,-0.5 L29.0,-0.5 L29.5,-0.5 L30.0,-0.5 L30.5,-0.5 L31.0,-0.5 L31.5,-0.5 L32.0,-0.5 L32.5,-0.5 L33.0,-0.5 L33.5,-0.5 L34.0,-0.5 L34.5,-0.5 L35.0,-0.5 L35.5,-0.5 L36.0,-0.5 L36.5,-0.5 L37.0,-0.5 L37.5,-0.5 L38.0,-0.5 L38.5,-0.5 L39.0,-0.5 L39.5,-0.5 L40.0,-0.5 L40.5,-0.5 L41.0,-0.5 L41.5,-0.5 L42.0,-0.5 L42.5,-0.5 L43.0,-0.5 L43.5,-0.5 L44.0,-0.5 L44.5,-0.5 L45.0,-0.5 L45.5,-0.5 L46.0,-0.5 L46.5,-0.5 L47.0,-0.5 L47.5,-0.5 L48.0,-0.5 L48.5,-0.5 L49.0,-0.5 L49.5,-0.5 L50.0,-0.5 L50.5,-0.5 L51.0,-0.5 L51.5,-0.5 L52.0,-0.5 L52.5,-0.5 L53.0,-0.5 L53.5,-0.5 L54.0,-0.5 L54.5,-0.5 L55.0,-0.5 L55.5,-0.5 L56.0,-0.5 L56.5,-0.5 L57.0,-0.5 L57.5,-0.5 L58.0,-0.5 L58.5,-0.5 L59.0,-0.5 L59.5,-0.5 L60.0,-0.5 L60.5,-0.5 L61.0,-0.5 L61.5,-0.5 L62.0,-0.5 L62.5,-0.5 L63.0,-0.5 L63.5,-0.5 L64.0,-0.5 L64.5,-0.5 L65.0,-0.5 L65.5,-0.5 L66.0,-0.5 L66.5,-0.5 L67.0,-0.5 L67.5,-0.5 L68.0,-0.5 L68.5,-0.5 L69.0,-0.5 L69.5,-0.5 L70.0,-0.5 L70.5,-0.5 L71.0,-0.5 L71.5,-0.5 L72.0,-0.5 L72.5,-0.5 L73.0,-0.5 L73.5,-0.5 L74.0,-0.5 L74.5,-0.5 L75.0,-0.5 L75.5,-0.5 L76.0,-0.5 L76.5,-0.5 L77.0,-0.5 L77.5,-0.5 L78.0,-0.5 L78.5,-0.5 L79.0,-0.5 L79.5,-0.5 L80.0,-0.5 L80.5,-0.5 L81.0,-0.5 L81.5,-0.5 L82.0,-0.5 L82.5,-0.5 L83.0,-0.5 L83.5,-0.5 L84.0,-0.5 L84.5,-0.5 L85.0,-0.5 L85.5,-0.5 L86.0,-0.5 L86.50000000000001,-0.5 L87.0,-0.5 L87.5,-0.5 L88.0,-0.5 L88.50000000000001,-0.5 L89.0,-0.5 L89.5,-0.5 L90.0,-0.5 L90.50000000000001,-0.5 L91.0,-0.5 L91.5,-0.5 L92.0,-0.5 L92.50000000000001,-0.5 L93.0,-0.5 L93.5,-0.5 L94.0,-0.5 L94.50000000000001,-0.5 L95.0,-0.5 L95.5,-0.5 L96.0,-0.5 L96.50000000000001,-0.5 L97.0,-0.5 L97.5,-0.5 L98.0,-0.5 L98.50000000000001,-0.5 L99.0,-0.5 L99.5,-0.5 L100.0,-0.5 L100.50000000000001,-0.5 L101.0,-0.5 L101.5,-0.5 L102.0,-0.5 L102.50000000000001,-0.5 L103.0,-0.5 L103.5,-0.5 L104.0,-0.5 L104.50000000000001,-0.5 L105.0,-0.5 L105.5,-0.5 L106.0,-0.5 L106.50000000000001,-0.5 L107.0,-0.5 L107.5,-0.5 L108.0,-0.5 L108.50000000000001,-0.5 L109.0,-0.5 L109.5,-0.5 L110.0,-0.5 L110.50000000000001,-0.5 L111.0,-0.5 L111.5,-0.5 L112.0,-0.5 L112.50000000000001,-0.5 L113.0,-0.5 L113.5,-0.5 L114.0,-0.5 L114.50000000000001,-0.5 L115.0,-0.5 L115.5,-0.5 L116.0,-0.5 L116.50000000000001,-0.5 L117.0,-0.5 L117.5,-0.5 L118.0,-0.5 L118.50000000000001,-0.5 L119.0,-0.5 L119.5,-0.5 L120.0,-0.5 L120.50000000000001,-0.5 L121.0,-0.5 L121.5,-0.5 L122.0,-0.5 L122.50000000000001,-0.5 L123.0,-0.5 L123.5,-0.5 L124.0,-0.5 L124.50000000000001,-0.5 L125.0,-0.5 L125.5,-0.5 L126.0,-0.5 L126.50000000000001,-0.5 L127.0,-0.5 L127.5,-0.5 L128.0,-0.5 L128.5,-0.5 L129.0,-0.5 L129.5,-0.5 L130.0,-0.5 L130.5,-0.5 L131.0,-0.5 L131.5,-0.5 L132.0,-0.5 L132.5,-0.5 L133.0,-0.5 L133.5,-0.5 L134.0,-0.5 L134.5,-0.5 L135.0,-0.5 L135.5,-0.5 L136.0,-0.5 L136.5,-0.5 L137.0,-0.5 L137.5,-0.5 L138.0,-0.5 L138.5,-0.5 L139.0,-0.5 L139.5,-0.5 L140.0,-0.5 L140.5,-0.5 L141.0,-0.5 L141.5,-0.5 L142.0,-0.5 L142.5,-0.5 L143.0,-0.5 L143.5,-0.5 L144.0,-0.5 L144.5,-0.5 L145.0,-0.5 L145.5,-0.5 L146.0,-0.5 L146.5,-0.5 L147.0,-0.5 L147.5,-0.5 L148.0,-0.5 L148.5,-0.5 L149.0,-0.5 L149.5,-0.5 L150.0,-0.5 L150.5,-0.5 L151.0,-0.5 L151.5,-0.5 L152.0,-0.5 L152.5,-0.5 L153.0,-0.5 L153.5,-0.5 L154.0,-0.5 L154.5,-0.5 L155.0,-0.5 L155.5,-0.5 L156.0,-0.5 L156.5,-0.5 L157.0,-0.5 L157.5,-0.5 L158.0,-0.5 L158.5,-0.5 L159.0,-0.5 L159.5,-0.5 L160.0,-0.5 L160.5,-0.5 L161.0,-0.5 L161.5,-0.5 L162.0,-0.5 L162.5,-0.5 L163.0,-0.5 L163.5,-0.5 L164.0,-0.5 L164.5,-0.5 L165.0,-0.5 L165.5,-0.5 L166.0,-0.5 L166.5,-0.5 L167.0,-0.5 L167.5,-0.5 L168.0,-0.5 L168.5,-0.5 L169.0,-0.5 L169.5,-0.5 L170.0,-0.5 L170.5,-0.5 L170.5,-1.0 L170.5,-1.5 L170.5,-2.0 L170.5,-2.5 L170.5,-3.0 L170.5,-3.5 L170.5,-4.0 L170.5,-4.5 L170.5,-5.0 L170.5,-5.5 L170.5,-6.0 L170.5,-6.5 L170.5,-7.0 L170.5,-7.5 L170.5,-8.0 L170.5,-8.5 L170.5,-9.0 L170.5,-9.5 L170.5,-10.0 L170.5,-10.5 L170.5,-11.0 L170.5,-11.5 L170.5,-12.0 L170.5,-12.5 L170.5,-13.0 L170.5,-13.5 L170.5,-14.0 L170.5,-14.5 L170.5,-15.0 L170.5,-15.5 L170.5,-16.0 L170.5,-16.5 L170.5,-17.0 L170.5,-17.5 L170.5,-18.0 L170.5,-18.5 L170.5,-19.0 L170.5,-19.5 L170.5,-20.0 L170.5,-20.5 L170.5,-21.0 L170.0,-21.0 L169.5,-21.0 L169.0,-21.0 L168.5,-21.0 L168.0,-21.0 L167.5,-21.0 L167.0,-21.0 L166.5,-21.0 L166.0,-21.0 L165.5,-21.0 L165.0,-21.0 L164.5,-21.0 L164.0,-21.5 L163.5,-22.0 L163.5,-22.5 L163.0,-23.0 L163.0,-22.5 L163.0,-22.0 L162.5,-21.5 L162.5,-21.0 L162.5,-20.5 L162.0,-20.0 L162.0,-19.5 L162.0,-19.0 L161.5,-18.5 L161.5,-18.0 L161.5,-17.5 L161.0,-17.0 L160.5,-16.5 L160.0,-16.0 L159.5,-15.5 L159.0,-15.0 L158.5,-14.5 L158.0,-14.0 L158.0,-13.5 L158.0,-13.0 L158.0,-12.5 L158.0,-12.0 L158.0,-11.5 L158.0,-11.0 L158.0,-10.5 L158.0,-10.0 L157.5,-9.5 L157.0,-9.5 L156.5,-9.0 L156.0,-9.0 L155.5,-8.5 L155.0,-8.5 L154.5,-8.0 L154.0,-8.0 L153.5,-7.5 L153.0,-7.5 L152.5,-7.5 L152.0,-7.5 L151.5,-7.5 L151.0,-7.5 L150.5,-7.5 L150.0,-7.5 L149.5,-7.5 L149.0,-7.5 L148.5,-7.5 L148.0,-7.5 L147.5,-8.0 L147.0,-8.0 L146.5,-8.5 L146.0,-8.5 L145.5,-9.0 L145.0,-9.5 L144.5,-9.5 L144.0,-9.5 L143.5,-10.0 L143.5,-10.5 L143.5,-11.0 L144.0,-11.5 L144.5,-12.0 L144.5,-12.5 L144.5,-13.0 L145.0,-13.5 L145.0,-14.0 L144.5,-14.5 L144.5,-15.0 L144.0,-15.5 L143.5,-16.0 L143.0,-16.5 L143.0,-17.0 L143.0,-17.5 L142.5,-18.0 L142.0,-18.5 L142.0,-19.0 L141.5,-19.5 L141.0,-20.0 L140.5,-20.0 L140.0,-19.5 L140.0,-19.0 L139.5,-18.5 L139.0,-18.0 L139.0,-17.5 L139.0,-17.0 L139.0,-16.5 L139.5,-16.0 L139.5,-15.5 L139.5,-15.0 L139.5,-14.5 L139.5,-14.0 L139.5,-13.5 L139.5,-13.0 L139.5,-12.5 L139.5,-12.0 L140.0,-11.5 L140.0,-11.0 L140.0,-10.5 L140.0,-10.0 L139.5,-9.5 L139.0,-9.5 L138.5,-9.5 L138.0,-9.0 L137.5,-9.0 L137.0,-9.0 L136.5,-9.0 L136.0,-9.0 L135.5,-9.0 L135.0,-9.0 L134.5,-9.5 L134.0,-9.5 L133.5,-9.5 L133.0,-9.5 L132.5,-9.5 L132.0,-9.5 L131.5,-9.5 L131.0,-9.5 L130.5,-9.5 L130.0,-10.0 L129.5,-10.0 L129.0,-10.0 L128.5,-9.5 L128.0,-9.5 L127.5,-9.0 L127.0,-9.0 L126.50000000000001,-9.0 L126.0,-8.5 L125.5,-8.5 L125.0,-8.0 L124.50000000000001,-8.5 L124.0,-8.5 L123.5,-9.0 L123.0,-9.0 L122.50000000000001,-9.5 L122.0,-9.5 L121.5,-10.0 L121.0,-10.5 L120.50000000000001,-11.0 L120.0,-11.5 L119.5,-12.0 L119.0,-12.5 L118.50000000000001,-13.0 L118.50000000000001,-13.5 L118.50000000000001,-14.0 L118.0,-14.0 L117.5,-14.0 L117.0,-14.5 L117.0,-14.0 L117.0,-13.5 L116.50000000000001,-13.0 L116.50000000000001,-12.5 L116.50000000000001,-12.0 L116.50000000000001,-11.5 L116.50000000000001,-11.0 L116.50000000000001,-10.5 L116.50000000000001,-10.0 L116.0,-9.5 L115.5,-9.5 L115.0,-9.0 L114.50000000000001,-9.0 L114.0,-8.5 L113.5,-8.5 L113.0,-8.5 L112.50000000000001,-8.5 L112.0,-8.5 L111.5,-9.0 L111.0,-9.0 L110.50000000000001,-9.0 L110.0,-9.5 L109.5,-9.5 L109.0,-9.5 L108.50000000000001,-9.5 L108.0,-9.5 L107.5,-9.5 L107.0,-9.5 L106.50000000000001,-9.5 L106.0,-9.5 L105.5,-9.5 L105.0,-9.5 L104.50000000000001,-9.5 L104.0,-9.5 L103.5,-9.5 L103.0,-9.5 L102.50000000000001,-9.5 L102.0,-9.5 L101.5,-9.5 L101.0,-9.5 L100.50000000000001,-9.5 L100.0,-9.5 L99.5,-9.5 L99.0,-9.5 L98.50000000000001,-9.5 L98.0,-9.5 L97.5,-9.5 L97.0,-9.5 L96.50000000000001,-9.5 L96.0,-9.0 L95.5,-9.0 L95.0,-9.0 L94.50000000000001,-9.0 L94.0,-8.5 L93.5,-8.5 L93.0,-8.5 L92.50000000000001,-8.5 L92.0,-8.5 L91.5,-8.5 L91.0,-9.0 L90.50000000000001,-9.0 L90.0,-9.0 L89.5,-9.0 L89.0,-9.0 L88.50000000000001,-9.0 L88.0,-9.0 L87.5,-9.0 L87.0,-8.5 L86.50000000000001,-8.5 L86.0,-8.5 L85.5,-8.5 L85.0,-8.5 L84.5,-8.5 L84.0,-9.0 L83.5,-9.0 L83.0,-9.0 L82.5,-9.5 L82.0,-9.5 L81.5,-10.0 L81.0,-10.0 L80.5,-10.0 L80.0,-10.0 L79.5,-10.0 L79.0,-10.5 L78.5,-10.5 L78.0,-10.5 L77.5,-11.0 L77.0,-10.5 L76.5,-10.5 L76.0,-10.0 L75.5,-9.5 L75.0,-9.5 L74.5,-9.5 L74.0,-9.5 L73.5,-9.5 L73.0,-9.0 L72.5,-9.0 L72.0,-9.0 L71.5,-9.0 L71.0,-9.0 L70.5,-9.0 L70.0,-9.0 L69.5,-9.0 L69.0,-9.0 L68.5,-9.0 L68.0,-9.0 L67.5,-9.0 L67.0,-9.0 L66.5,-9.0 L66.0,-8.5 L65.5,-8.5 L65.0,-8.5 L64.5,-8.5 L64.0,-8.5 L63.5,-8.0 L63.0,-8.0 L62.5,-8.0 L62.0,-7.5 L61.5,-7.5 L61.0,-7.5 L60.5,-8.0 L60.0,-8.0 L59.5,-8.0 L59.0,-8.5 L58.5,-8.5 L58.0,-9.0 L57.5,-9.0 L57.0,-9.0 L56.5,-9.0 L56.0,-9.0 L55.5,-8.5 L55.0,-8.5 L54.5,-8.5 L54.0,-8.5 L53.5,-8.5 L53.0,-8.5 L52.5,-8.5 L52.0,-8.5 L51.5,-8.5 L51.0,-8.5 L50.5,-8.5 L50.0,-8.5 L49.5,-8.5 L49.0,-8.5 L48.5,-8.5 L48.0,-8.5 L47.5,-8.5 L47.0,-8.5 L46.5,-8.5 L46.0,-8.5 L45.5,-8.5 L45.0,-8.5 L44.5,-9.0 L44.0,-9.0 L43.5,-9.0 L43.0,-9.5 L42.5,-9.5 L42.0,-9.5 L41.5,-9.5 L41.0,-9.5 L40.5,-9.5 L40.0,-9.5 L39.5,-9.5 L39.0,-9.5 L38.5,-9.5 L38.0,-9.5 L37.5,-9.0 L37.0,-9.5 L36.5,-9.5 L36.0,-9.5 L35.5,-9.5 L35.0,-9.5 L34.5,-9.5 L34.0,-9.5 L33.5,-9.5 L33.0,-9.5 L32.5,-9.5 L32.0,-9.5 L31.5,-10.0 L31.0,-10.0 L30.5,-10.0 L30.0,-10.0 L29.5,-10.0 L29.0,-10.0 L28.5,-10.0 L28.0,-9.5 L27.5,-9.5 L27.0,-9.5 L26.5,-9.5 L26.0,-9.5 L25.5,-9.5 L25.0,-9.5 L24.5,-9.5 L24.0,-9.5 L23.5,-9.5 L23.0,-9.5 L22.5,-9.5 L22.0,-9.5 L21.5,-9.5 L21.0,-9.5 L20.5,-9.5 L20.0,-9.5 L19.5,-9.5 L19.0,-10.0 L18.5,-10.0 L18.0,-10.0 L17.5,-10.0 L17.0,-10.0 L16.5,-10.0 L16.0,-10.0 L15.5,-10.0 L15.0,-10.0 L14.5,-10.0 L14.0,-10.0 L13.5,-9.5 L13.0,-9.5 L12.5,-9.5 L12.0,-9.5 L11.5,-9.5 L11.0,-9.5 L10.5,-9.5 L10.0,-9.0 L9.5,-9.5 L9.0,-9.5 L8.5,-10.0 L8.5,-10.5 L8.5,-11.0 L8.0,-11.5 L8.0,-12.0 L8.0,-12.5 L8.0,-13.0 L8.0,-13.5 L7.5,-14.0 L7.5,-14.5 L7.0,-15.0 L7.0,-15.5 L6.5,-16.0 L6.5,-16.5 L6.0,-17.0 L6.0,-17.5 L5.5,-18.0 L5.5,-18.5 L5.0,-19.0 L5.0,-19.5 L5.0,-20.0 L4.5,-20.5 L4.5,-21.0 L4.0,-21.5 L4.0,-22.0 L4.0,-22.5 L4.0,-23.0 L4.0,-23.5 L3.5,-24.0 L3.5,-24.5 L3.5,-25.0 L3.5,-25.5 L3.5,-26.0 L3.5,-26.5 L3.5,-27.0 L3.5,-27.5 L3.5,-28.0 L3.0,-28.5 L2.5,-28.5 L2.0,-29.0 L1.5,-29.0 L1.0,-29.0 L0.5,-29.0" stroke="yellow" stroke-width="2" fill="none" />
</svg>